<?xml version="1.0" encoding="UTF-8"?>
<svg version="1.1" xmlns="http://www.w3.org/2000/svg" width="2000" height="2000">
<path d="M0 0 C660 0 1320 0 2000 0 C2000 660 2000 1320 2000 2000 C1340 2000 680 2000 0 2000 C0 1340 0 680 0 0 Z " fill="#F8FDF8" transform="translate(0,0)"/>
<path d="M0 0 C2.74277316 0.01610382 5.48407767 0.00007013 8.22680664 -0.01904297 C30.82510999 -0.04632308 30.82510999 -0.04632308 40.18188477 7.39111328 C42.87680773 10.08603625 42.57604272 11.54917015 42.68188477 15.32861328 C42.37383496 30.60788374 35.2879816 44.87063919 29.7729187 58.88296509 C25.72465005 69.17245064 22.01342947 79.53479101 18.49438477 90.01611328 C13.92063673 103.60486556 9.02087298 117.04946054 3.93188477 130.45361328 C3.39291061 131.87324875 3.39291061 131.87324875 2.8430481 133.32156372 C0.29891177 140.01508471 -2.25755566 146.70386027 -4.81811523 153.39111328 C-5.16890137 154.30731445 -5.5196875 155.22351562 -5.88110352 156.16748047 C-6.57828873 157.98839472 -7.27547803 159.80930741 -7.97267151 161.63021851 C-9.67253208 166.07082333 -11.37099514 170.51196039 -13.06811523 174.95361328 C-13.39715851 175.81460632 -13.72620178 176.67559937 -14.06521606 177.56268311 C-18.8243729 190.02781948 -23.47458346 202.52872981 -28.00561523 215.07861328 C-28.26838257 215.80525177 -28.5311499 216.53189026 -28.80187988 217.2805481 C-36.03541875 237.2964624 -36.03541875 237.2964624 -41.81811523 257.76611328 C-42.06956299 258.77577148 -42.32101074 259.78542969 -42.58007812 260.82568359 C-44.3862036 268.22355531 -45.8521812 275.65824769 -47.25561523 283.14111328 C-50.50450644 300.2123909 -55.37967837 323.02139355 -70.06811523 334.07861328 C-80.2659899 340.0513798 -95.34476694 340.06582495 -106.81811523 340.39111328 C-107.69306641 340.41834473 -108.56801758 340.44557617 -109.46948242 340.47363281 C-130.12321725 341.03193676 -149.6422293 339.71743086 -165.81811523 325.39111328 C-166.42139648 324.91544922 -167.02467773 324.43978516 -167.64624023 323.94970703 C-177.49172915 315.45686412 -181.89451417 300.35722642 -186.10473633 288.39892578 C-186.80802981 286.41949883 -187.53799844 284.45190276 -188.27514648 282.48486328 C-191.24944783 274.44754366 -193.70394818 266.3498901 -195.94311523 258.07861328 C-198.72522791 247.87028209 -201.83949557 237.79473858 -205.14813232 227.7460022 C-205.67319898 226.1493763 -206.19463425 224.55155106 -206.71221924 222.95248413 C-209.33720307 214.86262231 -211.91805442 207.43607251 -216.81811523 200.39111328 C-216.81811523 199.73111328 -216.81811523 199.07111328 -216.81811523 198.39111328 C-225.2610399 194.01330049 -234.39047912 191.93992789 -243.81811523 194.39111328 C-246.58821494 196.35621237 -246.58821494 196.35621237 -248.81811523 198.39111328 C-249.47811523 198.39111328 -250.13811523 198.39111328 -250.81811523 198.39111328 C-251.10170898 198.97376953 -251.38530273 199.55642578 -251.67749023 200.15673828 C-252.72823074 202.21503818 -253.87974017 204.16048817 -255.06811523 206.14111328 C-264.72766646 223.67560657 -268.28570242 244.01368896 -272.38061523 263.39111328 C-274.33803966 272.61320569 -276.71953355 281.48269095 -279.81811523 290.39111328 C-280.05143555 291.06754883 -280.28475586 291.74398438 -280.52514648 292.44091797 C-286.33073576 309.12034491 -293.64898386 325.52645792 -309.81811523 334.39111328 C-330.32490409 343.95495194 -362.04992655 343.73258318 -383.10717773 336.61767578 C-396.10617692 331.1470545 -403.05205289 317.19101867 -408.25268555 304.8762207 C-413.55487747 291.77719338 -417.24463124 278.08153189 -421.14404297 264.51831055 C-426.61514037 245.56009741 -432.89970553 226.85954457 -439.13061523 208.14111328 C-439.49380608 207.04981487 -439.49380608 207.04981487 -439.86433411 205.93647003 C-459.88184844 145.53319167 -459.88184844 145.53319167 -485.76538086 87.49487305 C-490.29027193 78.56918866 -494.41613269 69.56599846 -498.08227539 60.25537109 C-498.73023623 58.61375566 -499.40312234 56.98202496 -500.07983398 55.35205078 C-504.43844182 44.36641468 -506.07020079 33.02037569 -506.19311523 21.26611328 C-506.20697266 20.47269531 -506.22083008 19.67927734 -506.23510742 18.86181641 C-506.19554974 13.97748414 -505.48906274 10.62756829 -502.81811523 6.39111328 C-498.78291559 2.65855361 -495.74582779 1.28087055 -490.296875 1.21411133 C-488.92252037 1.19485847 -488.92252037 1.19485847 -487.520401 1.17521667 C-486.52681076 1.16782974 -485.53322052 1.16044281 -484.50952148 1.15283203 C-483.4735936 1.14476028 -482.43766571 1.13668854 -481.37034607 1.12837219 C-479.16537143 1.1145208 -476.96037525 1.10380338 -474.75537109 1.09594727 C-472.53590458 1.08454727 -470.31646278 1.06429165 -468.09716797 1.03442383 C-456.78971192 0.88236653 -445.73657606 0.97824538 -434.59545898 3.09814453 C-433.79040421 3.24547531 -432.98534943 3.39280609 -432.15589905 3.54460144 C-424.1587325 5.28148848 -419.90898025 9.62200193 -415.44311523 16.45361328 C-412.01050916 21.93549887 -409.35152258 27.50414848 -407.00170898 33.52392578 C-406.48943504 34.821269 -406.48943504 34.821269 -405.96681213 36.14482117 C-402.46500656 45.11786741 -399.33390225 54.21257405 -396.23449707 63.33068848 C-385.57372256 94.61904464 -374.38934715 125.68161473 -359.81811523 155.39111328 C-359.29846191 156.46989746 -358.77880859 157.54868164 -358.2434082 158.66015625 C-357.71763184 159.73797363 -357.19185547 160.81579102 -356.65014648 161.92626953 C-356.17424072 162.9060376 -355.69833496 163.88580566 -355.20800781 164.89526367 C-353.23977226 168.42965188 -351.60317052 169.93532279 -347.81811523 171.39111328 C-343.13135633 172.01752389 -339.23055171 172.02220192 -334.88061523 170.07861328 C-331.54307034 167.34789473 -329.56324967 165.36845562 -328.1550293 161.23486328 C-327.8627243 160.39114166 -327.57041931 159.54742004 -327.26925659 158.6781311 C-326.96053619 157.75841522 -326.6518158 156.83869934 -326.33374023 155.89111328 C-326.00157501 154.92523285 -325.66940979 153.95935242 -325.32717896 152.96420288 C-324.23265221 149.77590632 -323.15037298 146.58359324 -322.06811523 143.39111328 C-321.30419619 141.15724679 -320.539374 138.92368897 -319.77368164 136.69042969 C-318.59907918 133.26423673 -317.42511276 129.83784163 -316.25442505 126.41030884 C-313.83663094 119.33564919 -311.38351142 112.27480494 -308.88842773 105.22705078 C-301.49278524 84.31230675 -294.47547577 63.30988436 -287.82739258 42.14453125 C-286.17600003 36.88742278 -284.50339496 31.63744466 -282.81811523 26.39111328 C-282.58709106 25.66200745 -282.35606689 24.93290161 -282.11804199 24.18170166 C-281.49526268 22.23191452 -280.84887374 20.28971347 -280.20092773 18.34814453 C-279.85690918 17.30247314 -279.51289063 16.25680176 -279.15844727 15.17944336 C-276.71072517 10.08737886 -272.74266746 6.98298287 -267.81811523 4.39111328 C-264.97620076 3.44380846 -263.152397 3.24946671 -260.20166016 3.21411133 C-259.26605759 3.20127609 -258.33045502 3.18844086 -257.36650085 3.17521667 C-256.35408829 3.16782974 -255.34167572 3.16044281 -254.29858398 3.15283203 C-252.72334709 3.14072441 -252.72334709 3.14072441 -251.11628723 3.12837219 C-248.88613535 3.11452801 -246.65596225 3.10380736 -244.42578125 3.09594727 C-242.16530059 3.08449076 -239.9048456 3.06414104 -237.64453125 3.03442383 C-220.03684215 2.80296489 -204.52157883 2.91959323 -190.73999023 15.25048828 C-180.59947814 25.54581736 -176.40361045 40.74112897 -171.93670654 54.15765381 C-170.97099043 57.05758756 -169.99335789 59.95330793 -169.01391602 62.84863281 C-164.92984323 74.95413903 -160.92705842 87.08594066 -156.94044495 99.22380066 C-154.90700892 105.41367107 -152.86493458 111.60068562 -150.82164288 117.78730869 C-149.07601778 123.07631106 -147.34372217 128.36945128 -145.62097263 133.66594601 C-144.52725805 137.01907499 -143.42214821 140.36837237 -142.31423378 143.71683311 C-141.79808781 145.28477786 -141.28667029 146.8542885 -140.78041649 148.42545509 C-137.20029432 159.52517203 -133.55486963 169.30983736 -123.81811523 176.39111328 C-120.63741286 177.98146447 -117.23481073 178.18048776 -113.81811523 177.39111328 C-103.99151026 170.4961331 -100.58789585 158.18417098 -96.70703125 147.28540039 C-94.68593667 141.63888216 -92.48240275 136.09742108 -90.16918945 130.56445312 C-84.86816451 117.86843133 -80.05800893 105.03799842 -75.44311523 92.07861328 C-75.12681152 91.19072113 -74.81050781 90.30282898 -74.48461914 89.38803101 C-70.98124387 79.53189088 -67.55060089 69.65347925 -64.21655273 59.73876953 C-63.92761139 58.88236374 -63.63867004 58.02595795 -63.3409729 57.14360046 C-61.97743442 53.1000211 -60.62424604 49.05366532 -59.29321289 44.99926758 C-54.34031414 30.09531516 -48.58527042 14.05926148 -34.50561523 5.45361328 C-23.29699856 0.20877416 -12.13937837 -0.08479193 0 0 Z " fill="#07604A" transform="translate(614.818115234375,1046.60888671875)"/>
<path d="M0 0 C0.76022461 0.2573291 1.52044922 0.5146582 2.30371094 0.77978516 C19.70580609 6.72253689 36.19252358 14.64723985 50 27 C51.2375 28.07701172 51.2375 28.07701172 52.5 29.17578125 C55.03623488 31.41431782 57.52648539 33.69244005 60 36 C61.17949219 37.09828125 61.17949219 37.09828125 62.3828125 38.21875 C67.72956623 43.36613325 72.01552008 48.74729883 76 55 C76.69867187 56.08925781 77.39734375 57.17851563 78.1171875 58.30078125 C95.04401584 85.28981241 107.47277515 117.21922659 107.3125 149.375 C107.30686035 150.55803711 107.3012207 151.74107422 107.29541016 152.95996094 C106.97943264 175.69157097 106.97943264 175.69157097 99.921875 182.609375 C79.26048867 197.55948381 46.06535825 193.24421145 21.89602661 193.09320068 C12.70292179 193.03641271 3.50965618 193.02631285 -5.68359375 193.01171875 C-6.64749338 193.00991859 -7.61139301 193.00811844 -8.60450172 193.00626373 C-31.37165212 192.96592868 -54.13678669 193.10571286 -76.90289307 193.31637573 C-81.25471663 193.3564916 -85.6065342 193.39156894 -89.95843506 193.42214966 C-95.09654488 193.45850631 -100.23447706 193.50447201 -105.37243462 193.55812645 C-107.26978133 193.57648882 -109.16716239 193.59162028 -111.06456184 193.6033268 C-113.66358992 193.6201108 -116.26220633 193.64905429 -118.86108398 193.68115234 C-119.61834967 193.68331285 -120.37561535 193.68547335 -121.15582848 193.68769932 C-125.17511076 193.75166252 -128.44528891 194.0451038 -132 196 C-134.90911124 201.67969337 -134.80159584 207.6757349 -133.3359375 213.75390625 C-126.76356878 232.59302422 -107.864124 244.21094809 -90.94140625 252.7265625 C-71.02265124 262.2571797 -48.27133285 263.96828638 -27.2734375 257.109375 C-14.63237589 252.2278123 -2.31612961 245.38294448 9.31640625 238.4765625 C9.94047363 238.10635986 10.56454102 237.73615723 11.20751953 237.35473633 C12.802633 236.39375137 14.38442184 235.41074097 15.96484375 234.42578125 C19.87889513 232.58713421 22.66393924 232.15625444 27 232 C29.46875 232.93359375 29.46875 232.93359375 31.5 234.4375 C32.1703125 234.91058594 32.840625 235.38367188 33.53125 235.87109375 C40.3502445 241.75139756 45.90004668 248.18506535 51.125 255.5 C52.29397738 257.11479581 53.46324548 258.7293812 54.6328125 260.34375 C55.19242676 261.12032959 55.75204102 261.89690918 56.32861328 262.69702148 C59.44603811 266.99247407 62.63905354 271.2307696 65.875 275.4375 C67.57896497 279.31875353 67.63759597 282.83338449 67 287 C59.51050421 302.95588234 38.32589271 309.65567592 23.0222168 315.27758789 C9.24601988 320.14579738 -4.78522968 323.68729146 -19 327 C-20.66796631 327.40871338 -20.66796631 327.40871338 -22.36962891 327.82568359 C-47.48142652 333.92137303 -73.90885888 334.58771973 -99 328 C-99.72461426 327.82339844 -100.44922852 327.64679688 -101.19580078 327.46484375 C-130.64574129 320.2477038 -156.36223726 303.856851 -178 283 C-178.70253906 282.34902344 -179.40507813 281.69804688 -180.12890625 281.02734375 C-201.95228042 260.26207257 -217.56130547 229.98631793 -225 201 C-225.18336914 200.30277832 -225.36673828 199.60555664 -225.55566406 198.88720703 C-228.81077345 185.97417155 -229.37697621 173.24456233 -229.375 160 C-229.37681274 159.21262451 -229.37862549 158.42524902 -229.38049316 157.61401367 C-229.37007055 117.61200239 -215.40532051 77.52428859 -188 48 C-187.46890625 47.42507813 -186.9378125 46.85015625 -186.390625 46.2578125 C-141.26509293 -2.03072415 -62.54831667 -21.98205807 0 0 Z " fill="#08604A" transform="translate(1264,616)"/>
<path d="M0 0 C1.52258423 0.10501831 1.52258423 0.10501831 3.07592773 0.2121582 C12.04057148 0.96189035 20.0138655 2.4650918 26.4375 9.1875 C31.33375628 16.86314929 32.80621915 24.83925162 32.75 33.8125 C32.74480347 35.18414307 32.74480347 35.18414307 32.73950195 36.58349609 C32.56300618 47.98258797 30.7313797 59.12854314 28.68017578 70.32055664 C26.69880446 81.48413184 25.90736728 92.36403032 25.93652344 103.69848633 C25.93751374 106.41264432 25.89528982 109.1241246 25.8515625 111.83789062 C25.84636545 113.59374424 25.84366714 115.34960745 25.84375 117.10546875 C25.82735474 117.90139938 25.81095947 118.69733002 25.79406738 119.51737976 C25.86693108 125.4599111 27.60151327 129.62080219 31.4375 134.1875 C39.67679053 139.68036035 53.60953743 135.44363796 62.94052124 133.85089111 C66.29496584 133.28128352 69.65416986 132.74258864 73.01338196 132.20193481 C75.55940963 131.7920753 78.10497595 131.37946854 80.65039062 130.96582031 C81.45984131 130.83437622 82.26929199 130.70293213 83.10327148 130.56750488 C84.58927502 130.3255883 86.07513186 130.08276767 87.56079102 129.83874512 C124.83748294 123.72456668 164.21402727 121.16221017 196.921875 143.28515625 C229.03553919 167.56986815 240.75823794 207.54574978 246.08903503 245.81678772 C249.213979 270.52530736 249.07682522 295.26321492 249.11743164 320.1350708 C249.13752458 329.73220467 249.19426997 339.32921857 249.24619484 348.92622185 C249.26138572 352.24367777 249.26869332 355.56107097 249.27433777 358.8785553 C249.28135322 360.91065502 249.28845408 362.94275444 249.2956543 364.97485352 C249.29512558 365.88025879 249.29459686 366.78566406 249.29405212 367.71850586 C249.3169986 372.61408968 249.6113603 377.37346962 250.20929432 382.23228168 C250.48010454 384.55252677 250.57734201 386.84266338 250.59863281 389.17797852 C250.60824036 390.04661026 250.6178479 390.915242 250.62774658 391.81019592 C250.6341214 393.17452003 250.6341214 393.17452003 250.640625 394.56640625 C250.64632507 395.53674301 250.65202515 396.50707977 250.65789795 397.50682068 C250.66729256 399.55149261 250.67385972 401.5961793 250.67773438 403.64086914 C250.6873971 406.71723925 250.71845668 409.79292793 250.75 412.86914062 C250.91464958 443.46245305 250.91464958 443.46245305 243.98510742 452.86328125 C242.14688424 454.43616696 240.91869766 454.80155831 238.55078125 455.25 C237.35098633 455.48178955 237.35098633 455.48178955 236.12695312 455.71826172 C235.23943359 455.87311035 234.35191406 456.02795898 233.4375 456.1875 C231.99793945 456.44877686 231.99793945 456.44877686 230.52929688 456.71533203 C185.84682377 464.52562587 185.84682377 464.52562587 169.27734375 454.9375 C163.03779107 450.27439481 159.64248685 442.7393928 158.4375 435.1875 C158.35268371 432.73961356 158.32410263 430.28955645 158.33070374 427.84020996 C158.33126044 427.11007077 158.33181715 426.37993157 158.33239073 425.62766695 C158.33542174 423.18598871 158.34560219 420.74439278 158.35571289 418.30273438 C158.3592701 416.54971401 158.36235579 414.79669263 158.36500549 413.04367065 C158.371554 409.26941227 158.38111239 405.49517761 158.39290047 401.72093201 C158.41121622 395.74368813 158.42079935 389.76644998 158.42881775 383.78918457 C158.45294858 366.79204788 158.48872722 349.79494615 158.53344727 332.79785156 C158.55807075 323.40964918 158.57538836 314.02146069 158.58500665 304.63323069 C158.59151885 298.70164877 158.60701443 292.77018172 158.62932408 286.83863926 C158.64113139 283.13198711 158.64442599 279.42536211 158.64542198 275.71869278 C158.64755295 274.0116051 158.65308681 272.30451739 158.6624527 270.59745407 C158.77208218 249.79406515 155.74075903 229.87211163 141.1796875 213.83984375 C129.00532993 202.29331179 110.95857728 196.22868413 94.3125 195.6875 C75.2993402 196.3356759 59.11224915 205.88593559 46.25 219.375 C34.79600357 232.9179425 29.46898429 248.31701884 28.32397461 265.83618164 C28.19849825 267.72337339 28.19849825 267.72337339 28.07048702 269.64869022 C27.0765998 285.63193544 27.13756788 301.63521973 27.13157773 317.64284778 C27.12701721 322.08688498 27.1089718 326.5308655 27.09178162 330.97486877 C27.0396743 345.06424994 27.00851513 359.15366208 26.985856 373.2431193 C26.97073597 382.56849524 26.94711663 391.89376337 26.90745777 401.21907002 C26.88576009 406.48525965 26.87761528 411.75123708 26.87985051 417.01746833 C26.87818378 420.27915153 26.86414081 423.54069508 26.84663773 426.80232811 C26.84104434 428.31078832 26.84054737 429.81927752 26.84557533 431.32773972 C26.85172672 433.38913547 26.83947054 435.44965177 26.82276917 437.51097107 C26.81975217 439.23814188 26.81975217 439.23814188 26.81667423 441.00020504 C26.28672177 445.45492441 24.78993048 448.84368373 21.59765625 452.015625 C12.20103863 458.38502689 1.5537287 458.53820944 -9.5 458.4375 C-10.59666992 458.43073242 -11.69333984 458.42396484 -12.82324219 458.41699219 C-21.66465046 458.3099895 -30.48641647 457.95212745 -39.3125 457.4375 C-40.54347412 457.37594727 -41.77444824 457.31439453 -43.04272461 457.25097656 C-53.94287816 456.51888236 -53.94287816 456.51888236 -58.5625 452.1875 C-59.98828125 450.1875 -59.98828125 450.1875 -60.875 448.1875 C-61.18050781 447.5275 -61.48601562 446.8675 -61.80078125 446.1875 C-64.08719838 440.18418938 -63.78402954 434.22747064 -63.8125 427.875 C-63.833125 426.79798828 -63.85375 425.72097656 -63.875 424.61132812 C-63.89956841 419.24620171 -63.7622211 414.05721701 -62.88574219 408.76417542 C-59.85530152 390.38009167 -60.15410809 372.02172235 -60.22538662 353.4511652 C-60.24073195 348.65289567 -60.23925651 343.8546254 -60.24005127 339.05633545 C-60.24372665 330.96720527 -60.25857277 322.87816075 -60.28125 314.7890625 C-60.30974916 304.60667724 -60.32039304 294.42436121 -60.32505512 284.2419405 C-60.34169643 248.13722905 -60.41531383 212.03976676 -61.12681389 175.94112968 C-61.66921667 148.35377704 -61.81666276 120.76812457 -61.85175896 93.17601585 C-61.86268467 84.6923885 -61.88785995 76.20905774 -61.93124419 67.72553188 C-61.96138105 61.6164101 -61.97620488 55.50736766 -61.97952431 49.39817303 C-61.98185235 45.79926279 -61.99053686 42.20065878 -62.01598549 38.60183144 C-62.0435793 34.6463257 -62.03944326 30.69119903 -62.0324707 26.7355957 C-62.04528076 25.57599838 -62.05809082 24.41640106 -62.07128906 23.22166443 C-62.02738278 16.40240421 -61.22365375 11.9891752 -57.5625 6.1875 C-44.57473625 -6.46724417 -16.39649349 -1.21825047 0 0 Z " fill="#07604A" transform="translate(1581.5625,926.8125)"/>
<path d="M0 0 C18.48596004 17.16238295 27.90247642 40.97104286 29.19874716 65.77761602 C29.41551002 72.26384474 29.42977733 78.75246824 29.45654297 85.24169922 C29.47242108 87.406627 29.4890803 89.57154916 29.50645447 91.73646545 C29.5505615 97.5727396 29.58234033 103.40901579 29.61066198 109.24538565 C29.62895657 112.89676133 29.64996056 116.54811126 29.67190933 120.19946671 C29.74848836 132.95064989 29.81499115 145.70183999 29.87207031 158.453125 C29.92547039 170.32255595 30.00118023 182.19170495 30.08715236 194.06094062 C30.16014197 204.27440563 30.21755135 214.48788171 30.26288044 224.70150673 C30.29017765 230.79216136 30.32374945 236.88262119 30.37307358 242.97314072 C30.41887597 248.69419661 30.44526416 254.41501945 30.45683479 260.13624382 C30.46434816 262.23206305 30.47873118 264.32787092 30.50058174 266.42358971 C30.52938859 269.29040536 30.53310641 272.15622714 30.5307312 275.02316284 C30.55199831 276.25834115 30.55199831 276.25834115 30.57369506 277.51847255 C30.52233025 284.51639044 28.64402432 290.68581727 23.76171875 295.83203125 C16.96109129 299.78588443 9.80871516 300.40299734 2.07421875 299.39453125 C-5.48939087 297.36876934 -12.66917581 294.01941209 -19.73828125 290.70703125 C-39.81404808 281.47336995 -60.3824379 286.00580106 -81.23828125 290.39453125 C-81.93545258 290.54015503 -82.6326239 290.68577881 -83.35092163 290.83581543 C-96.73221464 293.65985033 -109.74618799 297.42231123 -122.77629089 301.55236816 C-149.14276027 309.90309538 -174.76020727 311.95512074 -200.453125 300.21484375 C-228.91129 285.29751541 -246.01386955 261.45499187 -255.890625 231.46484375 C-263.44020848 206.14932503 -262.65235025 175.25962692 -250.07348633 151.69677734 C-241.15565315 135.95164775 -229.53011044 124.30613659 -213.92578125 115.39453125 C-213.06855469 114.90210938 -212.21132813 114.4096875 -211.328125 113.90234375 C-197.43733337 106.81385737 -180.83040486 105.01228395 -165.54296875 103.19921875 C-160.64349854 102.61792567 -155.7562026 101.96789411 -150.87109375 101.27734375 C-150.15779404 101.17657028 -149.44449432 101.07579681 -148.70957947 100.9719696 C-146.46909116 100.6548812 -144.22868645 100.33720626 -141.98828125 100.01953125 C-132.07331411 98.61455053 -122.15561082 97.28007932 -112.2109375 96.1015625 C-110.87286797 95.94134613 -110.87286797 95.94134613 -109.50776672 95.77789307 C-105.19028774 95.26130561 -100.87210599 94.75555821 -96.55102539 94.27001953 C-77.99096703 92.48293041 -77.99096703 92.48293041 -62.4140625 83.3125 C-58.81912661 78.6796561 -57.23393619 73.4331705 -57.5234375 67.52734375 C-58.94103852 60.01268204 -63.26945004 54.01588819 -69.07421875 49.2109375 C-74.8886077 45.50725139 -81.39662844 43.48823915 -87.92578125 41.39453125 C-88.90675781 41.06453125 -89.88773438 40.73453125 -90.8984375 40.39453125 C-109.08170191 34.54890684 -131.56012502 35.62528828 -149.92578125 40.39453125 C-150.69374023 40.59320801 -151.46169922 40.79188477 -152.25292969 40.99658203 C-160.96270963 43.31745154 -169.32540079 46.06445884 -177.5871582 49.67407227 C-189.04160392 54.64131861 -199.93687529 57.14816786 -212.17578125 52.95703125 C-224.69961512 46.85512923 -235.83661239 38.15151549 -241.48828125 25.08203125 C-243.77861376 18.31756081 -243.77861376 18.31756081 -242.92578125 14.39453125 C-231.77585455 -6.3373637 -200.99378742 -13.97321728 -180.11376953 -20.37939453 C-168.16925849 -23.94199299 -156.22733381 -26.63356867 -143.92578125 -28.60546875 C-142.60755371 -28.82976562 -142.60755371 -28.82976562 -141.26269531 -29.05859375 C-93.37968073 -37.0823275 -38.37741634 -31.99415439 0 0 Z " fill="#07604A" transform="translate(923.92578125,1078.60546875)"/>
<path d="M0 0 C1.00554932 -0.01305176 2.01109863 -0.02610352 3.04711914 -0.03955078 C13.49786726 -0.05158388 28.04713778 1.06969647 35.875 8.875 C36.49375 9.638125 37.1125 10.40125 37.75 11.1875 C38.08 11.5175 38.41 11.8475 38.75 12.1875 C39.59828035 20.59077724 36.89094565 27.07178263 33.75 34.75 C33.20264225 36.12119555 32.65670494 37.49295881 32.11206055 38.86523438 C30.64073227 42.56185871 29.15116176 46.25087516 27.65814209 49.93878174 C26.18407254 53.58883514 24.727093 57.24567422 23.26953125 60.90234375 C21.375047 65.65154176 19.47830603 70.39980854 17.57446289 75.14526367 C11.2396296 90.93547143 4.95991707 106.74742649 -1.3125 122.5625 C-1.84882477 123.91467338 -2.38515086 125.26684623 -2.92147827 126.61901855 C-5.6279751 133.44276509 -8.33392047 140.26673016 -11.03955078 147.09082031 C-13.89916036 154.30324233 -16.75999283 161.51517877 -19.62118149 168.72697449 C-25.50039095 183.54598572 -31.37690782 198.3660632 -37.25 213.1875 C-37.83047089 214.65237854 -37.83047089 214.65237854 -38.42266846 216.14685059 C-40.54994121 221.51583076 -42.67598729 226.88529439 -44.80056763 232.25534058 C-45.47056787 233.94843538 -46.14087205 235.64140995 -46.81149292 237.33425903 C-50.96377325 247.81651811 -55.08131924 258.311664 -59.16629219 268.82035065 C-60.64664831 272.6260943 -62.13098863 276.43028647 -63.6152792 280.23449707 C-64.82069469 283.32528162 -66.02222103 286.41745338 -67.21853638 289.51177979 C-83.57499986 331.81519972 -83.57499986 331.81519972 -94.875 337.0625 C-100.9764635 339.09632117 -106.43268831 339.3450902 -112.8125 339.3125 C-113.78396973 339.30911621 -114.75543945 339.30573242 -115.75634766 339.30224609 C-124.74457014 339.24314018 -133.73168218 339.0800396 -142.71749878 338.86810303 C-144.31014882 338.83131959 -145.90286531 338.79729938 -147.49563599 338.76617432 C-168.49727337 338.34254429 -168.49727337 338.34254429 -176.375 333.5625 C-177.14070312 333.11648438 -177.90640625 332.67046875 -178.6953125 332.2109375 C-185.64193614 326.70887168 -189.96375687 319.81249274 -193.9375 312 C-194.44659912 311.00734131 -194.95569824 310.01468262 -195.48022461 308.99194336 C-204.32377351 291.39582019 -211.37591308 273.14474669 -217.625 254.5 C-226.63326738 227.62814925 -238.22767747 201.78005445 -249.49975586 175.79858398 C-253.50714132 166.56010024 -257.48776503 157.31602855 -261.3125 148 C-265.30027515 138.29798601 -269.52277245 128.70478506 -273.7585144 119.10931396 C-315.65983475 24.15265524 -315.65983475 24.15265524 -313.25 8.1875 C-311.04259319 5.21891843 -309.76402627 4.35884209 -306.25 3.1875 C-304.35664007 3.08398965 -302.45986622 3.03895241 -300.5637207 3.02636719 C-299.39432449 3.01675964 -298.22492828 3.0071521 -297.02009583 2.99725342 C-295.75147202 2.99300354 -294.48284821 2.98875366 -293.17578125 2.984375 C-291.86401413 2.97867493 -290.55224701 2.97297485 -289.20072937 2.96710205 C-286.41400772 2.95658923 -283.62731486 2.95075132 -280.84057617 2.94726562 C-278.01166671 2.94291122 -275.18306744 2.92914142 -272.35424805 2.90625 C-233.09076792 2.5949253 -233.09076792 2.5949253 -224.625 9.25 C-217.48331478 17.06898439 -213.57998248 26.6447418 -209.75 36.37890625 C-209.23626805 37.66683739 -208.72183389 38.95448863 -208.20675659 40.24188232 C-206.82941514 43.69136909 -205.46330295 47.14519782 -204.0996933 50.60013199 C-202.95742176 53.49027252 -201.80857439 56.37778075 -200.65988731 59.26537609 C-191.33465142 82.71329219 -182.2061376 106.23674908 -173.17608643 129.79977417 C-169.79163608 138.62750325 -166.38566166 147.44502877 -162.8828125 156.2265625 C-162.57262177 157.00610794 -162.26243103 157.78565338 -161.94284058 158.58882141 C-153.19527721 181.93728187 -153.19527721 181.93728187 -136.25 199.1875 C-132.70678447 200.1043022 -132.70678447 200.1043022 -129.25 199.1875 C-124.48510876 195.80952693 -122.23387043 192.98229235 -119.84375 187.55078125 C-119.55447632 186.8997493 -119.26520264 186.24871735 -118.96716309 185.57795715 C-115.70248623 178.13423732 -112.72443635 170.56788833 -109.77215576 162.99615479 C-108.71016257 160.2728433 -107.64218673 157.55194107 -106.57275391 154.83154297 C-105.40102124 151.85067612 -104.22966856 148.86966505 -103.05996704 145.88800049 C-97.94539764 132.85081306 -92.78678822 119.83104717 -87.625 106.8125 C-87.37866318 106.1911404 -87.13232635 105.56978081 -86.87852478 104.92959213 C-78.69624114 84.29204613 -70.48573265 63.66695425 -62.04821777 43.13220215 C-61.24390454 41.17264961 -60.44252494 39.21191676 -59.64160156 37.25097656 C-58.14866352 33.59956418 -56.63857465 29.95541072 -55.125 26.3125 C-54.69928711 25.27158203 -54.27357422 24.23066406 -53.83496094 23.15820312 C-50.14609049 14.37236092 -46.81298786 8.20656073 -37.84375 4.18359375 C-25.87960893 -0.41106886 -12.63701779 0.09478972 0 0 Z " fill="#07604A" transform="translate(989.25,607.8125)"/>
<path d="M0 0 C14.51397643 -0.59009596 28.38881665 1.09543183 42.68066406 3.56054688 C45.42300611 4.03244896 48.16814396 4.47154679 50.91699219 4.90332031 C71.68354586 8.38897449 93.59323446 15.45236082 111.80761719 26.09863281 C112.68804688 26.60910156 113.56847656 27.11957031 114.47558594 27.64550781 C123.16549349 33.06032458 130.67843593 40.11986123 133.80761719 50.09863281 C135.17473809 59.24503459 133.32975591 67.02611701 128.07714844 74.59082031 C126.06380548 77.17079272 123.96984232 79.64225337 121.80761719 82.09863281 C121.05738281 82.9584375 120.30714844 83.81824219 119.53417969 84.70410156 C104.1319011 102.07766154 104.1319011 102.07766154 96.43261719 102.66113281 C89.73193858 102.4433855 83.90454365 99.65377461 77.86230469 96.99707031 C62.22561876 90.15973616 46.58572248 84.13577876 29.86865234 80.55273438 C27.94879686 80.1297385 26.03963581 79.65898601 24.13183594 79.18457031 C-0.44606814 73.43629548 -24.21304355 77.80701173 -45.73144531 90.80566406 C-55.47104702 97.02561652 -62.92449819 105.45031604 -69.19238281 115.09863281 C-70.00642578 116.31486328 -70.00642578 116.31486328 -70.83691406 117.55566406 C-80.79160705 133.15555003 -83.43358872 149.63587807 -83.56738281 167.78613281 C-83.5813208 169.00945312 -83.59525879 170.23277344 -83.60961914 171.49316406 C-83.56826579 179.4501925 -82.5118259 186.49300052 -80.19238281 194.09863281 C-79.81597656 195.34515625 -79.43957031 196.59167969 -79.05175781 197.87597656 C-70.7797248 221.4396199 -56.5241978 240.28676373 -34.19238281 252.09863281 C-9.05543537 264.05970818 23.61652651 263.3330635 49.68261719 254.41113281 C61.71925467 249.97254428 71.95556222 243.35342747 81.87011719 235.29785156 C86.7720594 231.62791344 91.14953494 229.27494862 97.31152344 229.49316406 C105.9780959 231.5953843 112.40957983 239.4515526 117.80761719 246.09863281 C118.75314086 247.19038561 119.70271731 248.2786354 120.65527344 249.36425781 C139.53447976 270.93035916 139.53447976 270.93035916 139.23730469 279.82910156 C137.28073782 290.16333203 127.99891439 297.50360834 119.83496094 303.15722656 C111.48806477 308.46324606 102.72184746 312.8425837 93.80761719 317.09863281 C92.9267041 317.5257959 92.04579102 317.95295898 91.13818359 318.39306641 C49.76729684 338.38555987 4.91735527 347.59592228 -40.19238281 335.09863281 C-41.41731445 334.7617041 -41.41731445 334.7617041 -42.66699219 334.41796875 C-87.54480504 321.62499886 -128.31505396 290.07715296 -151.37841797 249.46533203 C-154.95850244 242.92316459 -157.69522415 236.11564866 -160.19238281 229.09863281 C-160.42054687 228.46731445 -160.64871094 227.83599609 -160.88378906 227.18554688 C-170.65755352 199.69334369 -172.2405012 165.46903119 -165.19238281 137.09863281 C-164.95068359 136.09977051 -164.70898438 135.1009082 -164.45996094 134.07177734 C-156.62351032 102.19508822 -144.65499168 73.46053255 -122.19238281 49.09863281 C-121.17917969 47.97908203 -121.17917969 47.97908203 -120.14550781 46.83691406 C-89.03998367 14.06977004 -43.70299124 1.96614794 0 0 Z " fill="#07604A" transform="translate(1373.1923828125,1046.9013671875)"/>
<path d="M0 0 C1.17208008 0.00161133 2.34416016 0.00322266 3.55175781 0.00488281 C12.29513561 0.12363442 20.84718406 0.88191605 29.5 2.125 C31.18464355 2.36017334 31.18464355 2.36017334 32.90332031 2.60009766 C40.29238039 3.77383961 45.92706011 5.01744127 50.92089844 10.95703125 C53.26247638 15.33264406 53.1993987 18.43471682 53 23.296875 C52.98485352 24.15573303 52.96970703 25.01459106 52.95410156 25.8994751 C52.88946953 29.54384814 52.7784693 33.18636043 52.66796875 36.82958984 C52.22489066 52.84161583 52.7879225 69.44931034 61.75 83.375 C62.11738281 83.95378906 62.48476562 84.53257813 62.86328125 85.12890625 C67.62400878 91.65650173 75.18316142 94.49908374 82.75 96.375 C85.37414133 96.55336453 87.89893643 96.65230133 90.51953125 96.6484375 C92.00065853 96.66873131 93.48177827 96.68958218 94.96289062 96.7109375 C97.25991238 96.73344533 99.55663306 96.749985 101.85375977 96.75585938 C112.13407481 96.80002355 121.34682638 97.00647665 129.6875 103.75 C134.71475683 110.14832687 135.17801299 115.18542498 135 123.0625 C134.97921387 124.53916138 134.97921387 124.53916138 134.95800781 126.0456543 C134.90922031 128.82309026 134.83526757 131.59847478 134.75 134.375 C134.7190625 135.55320312 134.688125 136.73140625 134.65625 137.9453125 C134.23230963 145.38546607 132.21586589 151.45489566 127.375 157.1875 C120.8180826 162.65159784 115.0493515 164.70914931 106.8125 166.875 C105.69746094 167.17905762 104.58242187 167.48311523 103.43359375 167.79638672 C98.66399742 169.09184117 93.88765111 170.35226481 89.08984375 171.5390625 C78.19644574 174.26518245 69.16167038 177.44106485 62.87109375 187.328125 C58.63937671 195.61482844 55.92545216 203.72063104 54.21923828 212.86767578 C53.89487938 214.60085264 53.55359776 216.33091702 53.19873047 218.05810547 C45.37656722 256.57382901 45.21155227 306.55724081 67.1796875 340.58984375 C71.54145696 346.22071562 78.04358651 350.13952884 84.75 352.375 C94.83364397 353.12945969 103.51531116 351.44088858 113.0390625 348.28515625 C121.29704388 345.5679516 127.93099704 344.06815174 136.4375 346.375 C148.07072295 353.39883272 153.61181581 367.75019322 159.1875 379.5625 C159.63714111 380.48885254 160.08678223 381.41520508 160.55004883 382.36962891 C163.18743041 388.10280021 164.74828606 393.03584383 163.75 399.375 C158.33711278 412.68168109 139.67967707 419.99479101 127.33251953 425.44140625 C97.62372426 437.43656763 63.78698495 440.11962575 33.75 427.6875 C7.94441068 416.33656037 -11.20110989 397.36459088 -21.875 371.0859375 C-30.48334103 347.85319893 -31.68783381 325.10003356 -31.62438464 300.50515866 C-31.61878657 296.67559799 -31.63344827 292.84612007 -31.64674377 289.0165863 C-31.68257411 277.6779213 -31.68916838 266.339266 -31.68664551 255.00054932 C-31.68492791 246.1500642 -31.69219604 237.29978523 -31.72662407 228.44935745 C-31.74326675 223.91843181 -31.74175898 219.38801357 -31.72580135 214.85709107 C-31.71995331 212.02987981 -31.73083267 209.20290318 -31.74604797 206.37573433 C-31.75147079 204.46877291 -31.73727731 202.5617861 -31.72218323 200.65487671 C-31.81727043 189.06898619 -34.09262011 178.4482277 -41.84765625 169.5234375 C-46.10767769 165.71366223 -51.05735796 163.64038391 -56.25 161.375 C-63.51240126 157.79235926 -68.14307614 154.84399785 -70.9375 146.9375 C-73.30637557 139.53972658 -73.49180524 132.26822894 -73.5625 124.5625 C-73.59150391 123.52029297 -73.62050781 122.47808594 -73.65039062 121.40429688 C-73.71859093 113.04713615 -71.93276631 107.43227004 -67.3515625 100.50390625 C-64.94095942 98.06193845 -62.72212852 96.77934583 -59.625 95.3125 C-58.57183594 94.81234375 -57.51867187 94.3121875 -56.43359375 93.796875 C-51.11856548 91.42304642 -45.7732438 89.21608127 -40.25 87.375 C-39.18664354 85.55151011 -39.18664354 85.55151011 -38.25 83.375 C-37.27337814 81.87334188 -36.29400045 80.37347397 -35.3125 78.875 C-26.09994054 63.31050468 -28.53102612 44.29279793 -30.7890625 27.0625 C-32.22959184 15.53826531 -32.22959184 15.53826531 -29.75 10.0625 C-21.38126477 1.06610963 -11.73353157 -0.01683434 0 0 Z " fill="#07604A" transform="translate(1034.25,950.625)"/>
<path d="M0 0 C2.21425458 1.88820738 4.29657863 3.77532921 6.2734375 5.91015625 C9.74135362 9.48803069 12.36417456 10.5369046 17.375 10.8125 C31.70329663 10.064371 45.57363536 2.9993346 58.62011719 -2.42138672 C70.44357198 -7.28214036 84.45543477 -12.60642125 97.125 -7.5625 C101.82499879 -4.46559628 103.87531165 -0.2097109 105.5625 5.0625 C106.17829395 10.68682384 106.08117242 16.22695472 105.9375 21.875 C105.92094414 23.35739862 105.90660883 24.83982376 105.89453125 26.32226562 C105.57508765 54.86008385 105.57508765 54.86008385 98.5 66.4375 C87.7975417 76.00139891 72.13861938 77.19818514 58.3984375 78.2409668 C43.87658198 79.48565309 32.39585895 86.55336172 22.88085938 97.44824219 C14.51124758 107.69636685 10.05163938 119.44340336 6.5625 132.0625 C6.33578613 132.87460937 6.10907227 133.68671875 5.87548828 134.5234375 C2.05323547 148.53563623 0.00012998 162.62889655 -1.4375 177.0625 C-1.51689788 177.80998127 -1.59629576 178.55746254 -1.67809963 179.32759476 C-3.23369737 194.12168895 -3.68204669 208.73892213 -3.55726433 223.60843086 C-3.52651655 227.35469123 -3.51013251 231.10079065 -3.49720764 234.84715271 C-3.46289218 244.12536619 -3.41017293 253.40345366 -3.3480835 262.68151855 C-3.2953196 270.58363708 -3.25429949 278.48561454 -3.23074532 286.38789177 C-3.21508647 290.07180484 -3.18214659 293.75531224 -3.14891052 297.43910217 C-3.14121195 299.68929749 -3.13441307 301.93949613 -3.12866211 304.18969727 C-3.11473419 305.20732651 -3.10080627 306.22495575 -3.0864563 307.27342224 C-3.09347159 312.63373683 -3.37717183 316.45430468 -6.4375 321.0625 C-16.16522196 330.56913737 -27.17164023 330.30057476 -39.875 330.3125 C-40.61037994 330.31350708 -41.34575989 330.31451416 -42.10342407 330.31555176 C-51.50562426 330.30684732 -60.78911613 330.04546454 -70.125 328.8125 C-70.99503662 328.70325195 -71.86507324 328.59400391 -72.76147461 328.48144531 C-77.83840816 327.70655831 -81.44072613 326.49265806 -85.4375 323.0625 C-86.86328125 320.66015625 -86.86328125 320.66015625 -87.75 318.125 C-88.05550781 317.29097656 -88.36101562 316.45695312 -88.67578125 315.59765625 C-90.15501351 310.67446786 -90.57406402 306.17802263 -90.60437012 301.03294373 C-90.60843022 300.35011184 -90.61249033 299.66727996 -90.61667347 298.9637562 C-90.62617376 296.71984264 -90.62588285 294.47610819 -90.62304688 292.23217773 C-90.62304656 291.45370448 -90.62304625 290.67523123 -90.62304592 289.87316787 C-90.60680137 275.7419951 -89.88414814 261.73403375 -88.89889669 247.63596541 C-86.65276738 215.34340824 -86.03792742 183.11016313 -85.96875 150.74609375 C-85.96610767 149.66292893 -85.96346535 148.57976411 -85.96074295 147.46377611 C-85.92101905 130.80916688 -85.92483365 114.15463922 -85.9375 97.5 C-85.94856197 82.77675155 -85.95372769 68.05363836 -85.92020559 53.3304134 C-85.90693561 47.01150207 -85.91262453 40.6929957 -85.93357086 34.37410915 C-85.94254384 30.48635496 -85.93510294 26.59875842 -85.92315865 22.71101761 C-85.92102938 20.91589003 -85.92574011 19.12073906 -85.9378643 17.32565117 C-85.95349142 14.87487435 -85.94450023 12.42534803 -85.92956543 9.97459412 C-85.94005433 9.26979792 -85.95054322 8.56500172 -85.96134996 7.83884805 C-85.88828009 2.44671357 -84.38166044 -0.57756902 -81.4375 -4.9375 C-78.46880925 -7.12418127 -75.77908043 -7.21761973 -72.1484375 -7.31640625 C-71.12363281 -7.35056641 -70.09882812 -7.38472656 -69.04296875 -7.41992188 C-67.97691406 -7.44634766 -66.91085937 -7.47277344 -65.8125 -7.5 C-57.0909636 -7.73874974 -57.0909636 -7.73874974 -48.3984375 -8.44140625 C-31.22991771 -10.29035023 -14.23994583 -11.05664945 0 0 Z " fill="#07604A" transform="translate(1468.4375,616.9375)"/>
<path d="M0 0 C0.71542969 0.25523437 1.43085938 0.51046875 2.16796875 0.7734375 C7.45600844 3.00321052 10.97088278 6.70152375 14.82421875 10.87890625 C18.76144968 14.71717626 22.04168115 16.46327162 27.5625 16.625 C37.32323168 16.36296693 46.01857215 12.50201459 55 9 C57.27312533 8.12549021 59.54657751 7.25182968 61.8203125 6.37890625 C65.26894858 5.05425823 68.71548141 3.72552511 72.1550293 2.37744141 C82.83926649 -1.79510093 94.60448972 -6.13083239 106.0625 -1.875 C111.56490733 1.63717489 114.45839643 5.72396057 116 12 C116.2961595 16.14814864 116.28416094 20.28037672 116.25 24.4375 C116.24250732 25.62585449 116.23501465 26.81420898 116.22729492 28.03857422 C116.13347379 35.91430809 115.87632217 43.7685148 115.3125 51.625 C115.25932617 52.54079834 115.20615234 53.45659668 115.15136719 54.40014648 C114.47897614 62.26581185 111.59303729 68.57029687 106.0625 74.25 C96.45457637 81.5936359 84.99784166 82.65699636 73.34765625 83.28027344 C57.80438909 84.18607073 44.87329093 90.29798126 34.3125 101.8125 C30.63854679 106.2246378 27.72081072 110.95358012 25 116 C24.57976562 116.7734375 24.15953125 117.546875 23.7265625 118.34375 C7.94393396 150.11005968 6.40323366 190.41919284 6.80507088 225.15089035 C6.84913428 229.02850532 6.87161901 232.90577909 6.88926697 236.78359985 C6.93545051 246.37989618 7.01412682 255.97588233 7.09979248 265.57189941 C7.17249561 273.76368928 7.22895397 281.95524809 7.26269341 290.14729691 C7.28475537 293.95426178 7.33017026 297.76049188 7.37623596 301.56723022 C7.38756668 303.89556312 7.39771727 306.22390217 7.40649414 308.55224609 C7.42558838 309.59844116 7.44468262 310.64463623 7.46435547 311.72253418 C7.45694498 317.94908085 6.72657903 322.86861007 3 328 C-5.92645825 336.34880398 -16.1094961 336.46761108 -27.6875 336.3125 C-28.7827449 336.30410095 -28.7827449 336.30410095 -29.90011597 336.29553223 C-38.96853014 336.2254934 -48.02247066 336.01511209 -57.0625 335.25 C-58.27135864 335.15779175 -58.27135864 335.15779175 -59.50463867 335.0637207 C-65.66377574 334.42743259 -71.48083796 332.60313411 -75.875 328.0625 C-86.31169248 308.92856379 -80.59066685 274.68914053 -79.11425781 253.79736328 C-79.02725679 252.56254652 -78.94025578 251.32772976 -78.85061836 250.05549431 C-78.76077108 248.78131205 -78.67092381 247.50712978 -78.57835388 246.19433594 C-76.33609432 214.27409176 -75.59050411 182.43246476 -75.49609375 150.4375 C-75.49113243 148.86885437 -75.49113243 148.86885437 -75.48607087 147.26851892 C-75.44035968 132.27450517 -75.43467077 117.28055463 -75.43719482 102.28648376 C-75.43861766 86.96379127 -75.42826485 71.64116142 -75.3886171 56.31851673 C-75.37378406 50.21069457 -75.37386711 44.10311822 -75.38609493 37.99529266 C-75.39079272 34.24094877 -75.38331425 30.48670061 -75.37255096 26.73237228 C-75.37014264 24.99607652 -75.37288787 23.25976483 -75.38115883 21.52348709 C-75.39176286 19.15741264 -75.38404556 16.79207583 -75.37181091 14.42602539 C-75.37938697 13.74059379 -75.38696302 13.05516218 -75.39476866 12.34895992 C-75.33684757 7.07691334 -73.92151602 3.88132341 -70.17919922 0.21728516 C-67.37580621 -1.3486702 -65.33611883 -1.41493155 -62.1328125 -1.4765625 C-60.99972656 -1.5075 -59.86664063 -1.5384375 -58.69921875 -1.5703125 C-57.51972656 -1.58835937 -56.34023438 -1.60640625 -55.125 -1.625 C-52.79419344 -1.67628287 -50.4634566 -1.73086253 -48.1328125 -1.7890625 C-47.10043457 -1.80662598 -46.06805664 -1.82418945 -45.00439453 -1.84228516 C-9.57700599 -3.70203593 -9.57700599 -3.70203593 0 0 Z " fill="#07604A" transform="translate(448,611)"/>
<path d="M0 0 C1.35216362 -0.00855011 1.35216362 -0.00855011 2.73164368 -0.01727295 C4.63708328 -0.02670037 6.54253903 -0.03324794 8.44799805 -0.03710938 C11.33607118 -0.04678385 14.22342271 -0.07781589 17.11132812 -0.109375 C18.9700479 -0.11590917 20.82877272 -0.12115801 22.6875 -0.125 C23.5389006 -0.1373468 24.39030121 -0.1496936 25.26750183 -0.16241455 C34.21048636 -0.12984234 42.40229926 1.77063308 48.984375 8.046875 C55.00728463 15.72504155 55.79982721 25.97333372 55.80859375 35.38671875 C55.80955048 36.04591812 55.8105072 36.70511749 55.81149292 37.3842926 C55.81216856 38.7683217 55.81035763 40.15235408 55.80615234 41.53637695 C55.80080391 43.6317471 55.80611394 45.7269021 55.8125 47.82226562 C55.81183894 49.1770838 55.81055721 50.53190184 55.80859375 51.88671875 C55.80746582 53.09900146 55.80633789 54.31128418 55.80517578 55.56030273 C55.69173569 58.75396234 55.32746133 61.82004013 54.90261841 64.98277283 C54.4408545 69.50266057 54.5344644 74.0431379 54.54296875 78.58203125 C54.54155884 79.73405029 54.54014893 80.88606934 54.53869629 82.07299805 C54.53690186 85.28987488 54.54019829 88.50669098 54.54680634 91.72356033 C54.55080205 93.77630871 54.55331004 95.82905436 54.55548096 97.88180542 C54.58823089 125.19024453 54.77123746 152.49866793 54.99517822 179.80612183 C55.03296625 184.42973978 55.06674392 189.05335994 55.09710693 193.67703247 C55.13389538 199.20748505 55.1803348 204.73778043 55.23371887 210.26809692 C55.25207101 212.31727523 55.26732968 214.36648411 55.27915955 216.41571045 C55.34270612 227.00401403 55.74315261 237.2933755 57.22286987 247.7820282 C57.81855145 252.28154942 57.99862001 256.7085411 58.01171875 261.2421875 C58.02170395 262.52348038 58.02170395 262.52348038 58.03189087 263.83065796 C58.04185933 265.60648494 58.04671292 267.38234819 58.04638672 269.15820312 C58.05078872 271.83266632 58.08735619 274.50551064 58.125 277.1796875 C58.20479432 289.30786407 58.10913205 302.61578774 49.23828125 311.96875 C45.57477593 314.86291921 42.65098318 315.45452979 38.00854492 315.46191406 C36.87023727 315.46821838 35.73192963 315.47452271 34.55912781 315.48101807 C33.33305313 315.4769696 32.10697845 315.47292114 30.84375 315.46875 C29.5786409 315.47066345 28.3135318 315.4725769 27.01008606 315.47454834 C24.33267558 315.47590971 21.65562985 315.473222 18.97827148 315.46386719 C15.56215028 315.4525075 12.14634458 315.45901318 8.7302351 315.47101212 C5.45556248 315.48002183 2.18092676 315.47369167 -1.09375 315.46875 C-2.92375298 315.47482269 -2.92375298 315.47482269 -4.79072571 315.48101807 C-18.47174011 315.40587239 -18.47174011 315.40587239 -23.43359375 311.57421875 C-32.24082322 301.19426974 -32.49917829 289.68417738 -32.44921875 276.578125 C-32.45308594 275.58683594 -32.45695313 274.59554688 -32.4609375 273.57421875 C-32.45420949 268.34655111 -32.26856382 263.19330746 -31.82421875 257.984375 C-30.99836242 247.11527837 -31.17624607 236.22200442 -31.19921875 225.328125 C-31.20043732 224.06564941 -31.20165588 222.80317383 -31.20291138 221.50244141 C-31.2347625 192.31879014 -31.48392812 163.13574082 -31.73038483 133.95326996 C-31.76144029 130.23645154 -31.79133273 126.51962528 -31.82098389 122.80279541 C-32.0196465 98.1922121 -32.21869039 73.59802467 -33.21875 49.00494385 C-34.33610953 19.3218483 -34.33610953 19.3218483 -26.19921875 8.11328125 C-19.01440072 0.79374789 -9.65834007 0.04764449 0 0 Z " fill="#08604A" transform="translate(606.32421875,631.796875)"/>
<path d="M0 0 C10.33818713 7.9370598 17.39828709 19.72412751 19.5625 32.6875 C21.05565405 48.02128431 19.40101348 60.93284768 10.21484375 73.6953125 C2.1929621 83.36708471 -9.61154985 89.5800744 -22.12792969 90.99072266 C-24.88441962 91.12323667 -27.61556639 91.15562019 -30.375 91.125 C-31.34284424 91.11670166 -32.31068848 91.10840332 -33.30786133 91.09985352 C-40.3427039 90.93316233 -46.20808673 90.15056198 -52.4375 86.6875 C-53.365625 86.18992187 -54.29375 85.69234375 -55.25 85.1796875 C-66.49722662 78.6086176 -73.31191136 69.71208693 -77.546875 57.484375 C-81.23111312 41.77788615 -78.08788125 25.91705157 -70.05859375 12.12109375 C-63.78926962 2.70955415 -53.25489493 -3.95455258 -42.36328125 -6.8671875 C-27.76311465 -9.08937574 -12.5591514 -8.24891009 0 0 Z " fill="#07604A" transform="translate(649.4375,495.3125)"/>
<path d="M0 0 C1.7273939 1.35097672 3.4364554 2.72576989 5.125 4.125 C5.95257812 4.79015625 6.78015625 5.4553125 7.6328125 6.140625 C17.12033661 14.17081782 28.10336933 25.58080866 30.5234375 38.203125 C30.91245882 43.05662911 29.40943954 45.96355246 26.609375 49.6796875 C23.31623027 52.88617052 20.2098588 53.37784883 15.71781921 53.40588379 C14.6201825 53.41730408 13.52254578 53.42872437 12.39164734 53.44049072 C10.59229485 53.4438443 10.59229485 53.4438443 8.7565918 53.44726562 C7.489534 53.45719543 6.2224762 53.46712524 4.91702271 53.47735596 C1.44376187 53.50355599 -2.02942172 53.51648429 -5.50276589 53.52537727 C-7.6744485 53.5312464 -9.84611017 53.53945743 -12.01778221 53.54838562 C-18.81745659 53.57572264 -25.61708291 53.59506232 -32.41680843 53.6027894 C-40.25704194 53.61174876 -48.0965777 53.64683943 -55.93659908 53.70479059 C-62.0029954 53.74806985 -68.06919573 53.76820033 -74.13574475 53.77087164 C-77.75626457 53.77296453 -81.37612795 53.78470793 -84.99648476 53.82051086 C-89.03755431 53.85969825 -93.07716945 53.85087766 -97.1184082 53.83789062 C-98.31190384 53.85632019 -99.50539948 53.87474976 -100.73506165 53.89373779 C-107.16403049 53.82899856 -111.0341471 53.3065285 -115.65184307 48.64437103 C-118.66771128 44.89814462 -119.47657149 41.0971159 -119.296875 36.28125 C-116.34337561 21.18558646 -94.16619749 6.87426187 -82.4375 -1.125 C-56.65237096 -18.23387814 -25.34154254 -17.88184903 0 0 Z " fill="#F7FDF8" transform="translate(1245.875,691.875)"/>
<path d="M0 0 C2.56680922 0.01072551 5.13291885 0.00004309 7.69970703 -0.01269531 C36.36703861 -0.03809476 36.36703861 -0.03809476 44.81689453 7.90136719 C49.74011916 13.33226247 51.64093827 18.04164 51.43408203 25.40136719 C49.38043491 41.5655574 37.45351579 55.56007797 25.07080078 65.26074219 C17.60410222 70.70588918 9.54564186 74.63027313 1.07080078 78.26074219 C-0.10869141 78.80794922 -0.10869141 78.80794922 -1.31201172 79.36621094 C-11.87552942 82.97672669 -27.88367425 83.68590146 -38.08105469 78.95019531 C-52.15978134 71.54317587 -58.69161586 60.81899705 -63.67919922 46.03808594 C-66.26524415 37.00488732 -65.30896914 29.51228364 -60.92919922 21.26074219 C-54.37512063 10.78686097 -41.53402558 5.09151179 -29.92919922 2.26074219 C-19.97258747 0.12038192 -10.13152539 -0.05028052 0 0 Z " fill="#F7FDF8" transform="translate(816.92919921875,1234.7392578125)"/>
</svg>
